<svg width="65" height="65" viewBox="0 0 65 65" fill="none" xmlns="http://www.w3.org/2000/svg">
<path d="M35.293 12.1875V17.2027C35.293 18.9171 34.5312 19.7417 32.9448 19.7417C31.3584 19.7417 30.5967 18.9171 30.5967 17.2027V12.1875C30.5967 10.5361 31.3584 9.71143 32.9448 9.71143C34.5312 9.71143 35.293 10.5361 35.293 12.1875ZM40.0542 18.7891L42.9752 14.6636C43.9278 13.3941 45.1344 13.1402 46.3389 14.0278C47.5434 14.9155 47.6714 16.0591 46.7208 17.4566L43.7998 21.5191C42.8472 22.9166 41.7056 23.0425 40.4361 22.1549C39.2295 21.2652 39.1036 20.1866 40.0542 18.7911V18.7891ZM22.9145 14.7266L25.8984 18.7891C26.8511 20.1866 26.7231 21.2652 25.4536 22.1528C24.247 23.1055 23.1055 22.9146 22.1528 21.5171L19.1689 17.4546C18.2163 16.0571 18.3442 14.9785 19.6138 14.0908C20.8203 13.1381 21.9619 13.3291 22.9145 14.7266ZM32.9448 22.5977C38.4048 22.5977 42.8472 27.0421 42.8472 32.5C42.8472 37.895 38.4028 42.2764 32.9448 42.2764C27.4869 42.2764 23.0425 37.8971 23.0425 32.5C23.0425 27.04 27.4869 22.5977 32.9448 22.5977ZM14.4097 23.9952L19.2339 25.5186C20.8203 26.0264 21.3931 26.9791 20.8853 28.5025C20.4405 30.026 19.3619 30.4708 17.7105 29.963L13.0122 28.4396C11.4258 27.9317 10.853 26.9161 11.2978 25.3927C11.8056 23.9322 12.8233 23.4874 14.4097 23.9952ZM46.7187 25.5186L51.48 23.9952C53.1314 23.4874 54.147 23.9322 54.5898 25.3927C55.0977 26.9161 54.5269 27.9317 52.8755 28.3766L48.1772 29.963C46.5908 30.4708 45.5752 30.026 45.0673 28.5025C44.6225 26.9791 45.1303 26.0264 46.7187 25.5186ZM32.9448 37.96C35.9917 37.96 38.4678 35.4839 38.4678 32.5C38.4678 29.4531 35.9917 26.9771 32.9448 26.9771C29.898 26.9771 27.4848 29.4531 27.4848 32.5C27.4848 35.4839 29.898 37.96 32.9448 37.96ZM13.0122 36.4996L17.7734 34.9761C19.3598 34.4683 20.4405 34.8481 20.8833 36.3736C21.3911 37.897 20.8203 38.8497 19.2319 39.3575L14.4077 40.9439C12.8213 41.4517 11.8056 41.0069 11.2978 39.4835C10.853 37.96 11.4258 37.0074 13.0122 36.4996ZM48.1792 34.9761L52.9405 36.4996C54.5269 37.0074 55.0997 37.96 54.5919 39.4835C54.147 41.0069 53.1314 41.4517 51.482 40.9439L46.7208 39.3575C45.0694 38.8497 44.6266 37.897 45.0694 36.3736C45.5772 34.8502 46.5928 34.4683 48.1792 34.9761ZM19.1709 47.4175L22.1548 43.418C23.1075 42.0205 24.2491 41.8316 25.4556 42.7822C26.7252 43.6719 26.8531 44.7505 25.9005 46.146L22.9166 50.1455C21.9639 51.543 20.8223 51.7969 19.5528 50.9072C18.3463 50.0175 18.2203 48.815 19.1709 47.4175ZM43.7998 43.418L46.7208 47.4175C47.6734 48.815 47.5455 50.0195 46.3389 50.9092C45.1323 51.7989 43.9258 51.48 42.9752 50.2105L40.0542 46.148C39.1016 44.7505 39.2295 43.6719 40.4361 42.7842C41.7056 41.8945 42.8492 42.0205 43.7998 43.418ZM35.293 47.6714V52.6866C35.293 54.401 34.5312 55.2256 32.9448 55.2256C31.3584 55.2256 30.5967 54.401 30.5967 52.6866V47.6714C30.5967 45.9571 31.3584 45.1324 32.9448 45.1324C34.5312 45.1324 35.293 45.9571 35.293 47.6714Z" fill="#BBFD5E"/>
</svg>
