<svg width="40" height="40" viewBox="0 0 40 40" fill="none" xmlns="http://www.w3.org/2000/svg">
<g clip-path="url(#clip0_82_109)">
<path d="M26.6667 22.546V6.66791C26.6667 2.99135 23.6768 0.00140381 20.0002 0.00140381C16.3236 0.00140381 13.3337 2.99135 13.3337 6.66791V22.546C11.2054 24.4409 10.0004 27.1142 10.0004 30.0008C10.0004 33.0241 11.347 35.8541 13.6953 37.7623C15.4937 39.2239 17.7186 39.9989 20.0152 39.9989C20.7186 39.9989 21.4268 39.9256 22.1335 39.7789C26.0285 38.9656 29.1218 35.7823 29.8317 31.8541C30.4649 28.3559 29.26 24.8643 26.6667 22.546ZM20.0001 33.3341C18.1585 33.3341 16.6668 31.8425 16.6668 30.0008C16.6668 28.7708 17.3418 27.7075 18.3334 27.1292V21.6677C18.3334 20.7477 19.0784 20.0011 20.0001 20.0011C20.9217 20.0011 21.6667 20.7477 21.6667 21.6677V27.1292C22.6583 27.7076 23.3333 28.7708 23.3333 30.0008C23.3334 31.8424 21.8418 33.3341 20.0001 33.3341Z" fill="#BBFD5E"/>
<path d="M9.82459 19.2553C9.41124 18.4304 8.41298 18.097 7.588 18.5104L6.66637 18.9704V18.3337C6.66637 17.4137 5.92139 16.6671 4.99977 16.6671C4.07978 16.6671 3.33316 17.4137 3.33316 18.3337V18.9704L2.41318 18.5104C1.59155 18.097 0.589853 18.4304 0.17658 19.2553C-0.235053 20.0787 0.0982219 21.0803 0.921565 21.4919L1.2732 21.6669L0.921565 21.8436C0.0982219 22.2552 -0.235053 23.2552 0.17658 24.0802C0.469933 24.6635 1.05656 25.0002 1.66819 25.0002C1.91983 25.0002 2.17318 24.9452 2.41318 24.8252L3.33316 24.3635V25.0002C3.33316 25.9218 4.07978 26.6668 4.99977 26.6668C5.92139 26.6668 6.66637 25.9218 6.66637 25.0002V24.3635L7.588 24.8252C7.82799 24.9452 8.08135 25.0002 8.33134 25.0002C8.94469 25.0002 9.53132 24.6635 9.82467 24.0802C10.2363 23.2552 9.90303 22.2552 9.07969 21.8436L8.72805 21.6669L9.07969 21.4919C9.90287 21.0803 10.2362 20.0787 9.82459 19.2553Z" fill="#BBFD5E"/>
<path d="M39.0786 5.17716L38.727 5.00216L39.0786 4.82552C39.9019 4.41389 40.2352 3.41219 39.8236 2.58893C39.4119 1.76558 38.412 1.43231 37.587 1.84394L36.667 2.30393V1.66887C36.667 0.747244 35.9204 0.0022583 35.0004 0.0022583C34.0788 0.0022583 33.3338 0.747244 33.3338 1.66887V2.30385L32.4121 1.84386C31.5887 1.43223 30.5871 1.76551 30.1755 2.58885C29.7638 3.41219 30.0971 4.41381 30.9205 4.82545L31.2721 5.00208L30.9205 5.17708C30.0971 5.58871 29.7638 6.59041 30.1755 7.41368C30.4688 7.99702 31.0571 8.3353 31.6688 8.3353C31.9188 8.3353 32.1722 8.27866 32.4122 8.15866L33.3338 7.69867V8.3353C33.3338 9.25528 34.0788 10.0019 35.0004 10.0019C35.9204 10.0019 36.667 9.25528 36.667 8.3353V7.69867L37.587 8.15866C37.827 8.27866 38.0803 8.3353 38.332 8.3353C38.9436 8.3353 39.5303 7.99695 39.8236 7.41368C40.2353 6.59041 39.9019 5.58879 39.0786 5.17716Z" fill="#BBFD5E"/>
</g>
<defs>
<clipPath id="clip0_82_109">
<rect width="40" height="40" fill="white"/>
</clipPath>
</defs>
</svg>
