<svg width="139" height="131" viewBox="0 0 139 131" fill="none" xmlns="http://www.w3.org/2000/svg">
<path d="M64.0484 25.1575C64.7226 23.3734 65.0938 21.4737 65.0938 19.5C65.0938 9.28337 55.3565 1 43.3438 1C31.331 1 21.5938 9.28337 21.5938 19.5C21.5938 21.4737 21.9649 23.3734 22.6391 25.1575C14.124 27.6654 8 34.5289 8 42.625C8 52.8416 17.7372 61.125 29.75 61.125C34.4602 61.125 38.8048 59.8335 42.365 57.6678L31.4764 48.4062H25.6719C24.9201 48.4062 24.3125 47.8894 24.3125 47.25C24.3125 46.6106 24.9201 46.0938 25.6719 46.0938H31.1094V41.4688C31.1094 40.8293 31.717 40.3125 32.4688 40.3125C33.2205 40.3125 33.8281 40.8293 33.8281 41.4688V47.1355L41.9844 54.0696V39.6373L36.9547 35.3591C36.4232 34.907 36.4816 34.226 37.0145 33.7727C37.546 33.3207 38.2842 33.2177 38.8143 33.6687L43.3438 37.5213L47.8161 33.7172C48.3476 33.2652 49.2271 33.249 49.7586 33.6999C50.2902 34.1508 50.2888 34.8839 49.7573 35.336L44.7031 39.6349V54.0707L52.8594 47.1321V41.4688C52.8594 40.8293 53.467 40.3125 54.2188 40.3125C54.9705 40.3125 55.5781 40.8293 55.5781 41.4688V46.0938H61.0156C61.7674 46.0938 62.375 46.6106 62.375 47.25C62.375 47.8894 61.7674 48.4062 61.0156 48.4062H55.2111L44.3225 57.6678C47.8841 59.8335 52.2273 61.125 56.9375 61.125C68.9503 61.125 78.6875 52.8416 78.6875 42.625C78.6875 34.5289 72.5635 27.6654 64.0484 25.1575Z" fill="#BBFD5E"/>
<path d="M37.9062 62.2362V73.8438C37.9062 74.4832 38.5139 75 39.2656 75H47.4219C48.1736 75 48.7812 74.4832 48.7812 73.8438V62.2362C46.8482 61.6534 45.0185 60.8833 43.3438 59.9283C41.669 60.8833 39.8393 61.6534 37.9062 62.2362Z" fill="#BBFD5E"/>
<path d="M19.8333 104.5H67.1667M19.8333 104.5L27.7222 96.6667M19.8333 104.5L27.7222 112.333M67.1667 104.5L59.2778 96.6667M67.1667 104.5L59.2778 112.333M79 128V81M8 128V81" stroke="#BBFD5E" stroke-width="5" stroke-linecap="round" stroke-linejoin="round"/>
<path d="M112.5 61.3333V14.6667M112.5 61.3333L104.667 53.5556M112.5 61.3333L120.333 53.5556M112.5 14.6667L104.667 22.4444M112.5 14.6667L120.333 22.4444M136 3H89M136 73H112.5H89" stroke="#BBFD5E" stroke-width="5" stroke-linecap="round" stroke-linejoin="round"/>
</svg>
